<svg width="123" height="37" viewBox="0 0 123 37" fill="none" xmlns="http://www.w3.org/2000/svg">
<path d="M42.1545 28.1586V8.45482H51.7377C54.1659 8.47472 55.9571 8.94244 57.1115 9.85797C58.2659 10.7536 58.843 12.0572 58.843 13.7689C58.843 14.8834 58.5146 15.8487 57.8579 16.6647C57.2011 17.4608 56.196 17.9684 54.8426 18.1873V18.2171C56.3552 18.4162 57.4797 18.9436 58.2161 19.7994C58.9724 20.6353 59.3506 21.6504 59.3506 22.8445C59.3506 24.5363 58.7535 25.8499 57.5593 26.7853C56.3651 27.7008 54.5739 28.1586 52.1856 28.1586H42.1545ZM47.1103 24.5462H51.3198C52.2552 24.5462 52.9518 24.3572 53.4096 23.979C53.8673 23.6009 54.0962 23.0535 54.0962 22.337C54.0962 21.6404 53.8673 21.113 53.4096 20.7548C52.9518 20.3766 52.2552 20.1875 51.3198 20.1875H47.1103V24.5462ZM47.1103 16.5155H50.8421C52.6732 16.5155 53.5887 15.799 53.5887 14.366C53.5887 12.933 52.6732 12.2165 50.8421 12.2165H47.1103V16.5155Z" fill="black"/>
<path d="M71.3995 8.15628C73.3898 8.15628 75.1014 8.56429 76.5345 9.3803C77.9874 10.1764 79.1019 11.3308 79.8781 12.8434C80.6543 14.356 81.0424 16.1771 81.0424 18.3067C81.0424 20.4363 80.6543 22.2574 79.8781 23.77C79.1019 25.2826 77.9874 26.447 76.5345 27.263C75.1014 28.0591 73.3898 28.4571 71.3995 28.4571C69.4092 28.4571 67.6877 28.0591 66.2348 27.263C64.7818 26.447 63.6673 25.2826 62.8911 23.77C62.1149 22.2574 61.7268 20.4363 61.7268 18.3067C61.7268 16.1771 62.1149 14.356 62.8911 12.8434C63.6673 11.3308 64.7818 10.1764 66.2348 9.3803C67.6877 8.56429 69.4092 8.15628 71.3995 8.15628ZM71.3995 12.1866C70.4442 12.1866 69.6381 12.4155 68.9813 12.8732C68.3245 13.331 67.827 14.0177 67.4886 14.9332C67.1503 15.8288 66.9811 16.9533 66.9811 18.3067C66.9811 19.6402 67.1503 20.7647 67.4886 21.6802C67.827 22.5958 68.3245 23.2824 68.9813 23.7402C69.6381 24.1979 70.4442 24.4268 71.3995 24.4268C72.3549 24.4268 73.151 24.1979 73.7879 23.7402C74.4447 23.2824 74.9422 22.5958 75.2806 21.6802C75.6189 20.7647 75.7881 19.6402 75.7881 18.3067C75.7881 16.9533 75.6189 15.8288 75.2806 14.9332C74.9422 14.0177 74.4447 13.331 73.7879 12.8732C73.151 12.4155 72.3549 12.1866 71.3995 12.1866Z" fill="black"/>
<path d="M93.7075 8.45482C96.056 8.45482 97.8772 9.0121 99.1708 10.1267C100.484 11.2213 101.141 12.6842 101.141 14.5152C101.141 16.5254 100.494 18.0579 99.2007 19.1128C97.907 20.1676 96.0859 20.695 93.7374 20.695L93.2597 20.9637H89.3488V28.1586H84.3034V8.45482H93.7075ZM92.991 17.3215C93.9862 17.3215 94.7325 17.1225 95.2301 16.7244C95.7276 16.3264 95.9764 15.6895 95.9764 14.8138C95.9764 13.9579 95.7276 13.331 95.2301 12.933C94.7325 12.5349 93.9862 12.3359 92.991 12.3359H89.3488V17.3215H92.991ZM96.0063 18.3963L102.306 28.1586H96.6332L91.5879 19.5307L96.0063 18.3963Z" fill="black"/>
<path d="M113.246 8.45482C116.331 8.45482 118.689 9.31064 120.321 11.0223C121.973 12.7339 122.799 15.1621 122.799 18.3067C122.799 21.4514 121.973 23.8795 120.321 25.5911C118.689 27.3028 116.331 28.1586 113.246 28.1586H104.887V8.45482H113.246ZM112.738 24.2775C114.41 24.2775 115.624 23.78 116.38 22.7848C117.157 21.7698 117.545 20.2771 117.545 18.3067C117.545 16.3363 117.157 14.8536 116.38 13.8584C115.624 12.8434 114.41 12.3359 112.738 12.3359H110.021V24.2775H112.738Z" fill="black"/>
<path d="M33.2079 9.09939C33.2079 13.8154 25.774 17.6385 16.6039 17.6385C7.43383 17.6385 0 13.8154 0 9.09939C0 4.38335 7.43383 0.560242 16.6039 0.560242C25.774 0.560242 33.2079 4.38335 33.2079 9.09939Z" fill="black"/>
<path d="M33.2079 18.3067C33.2079 23.0227 25.774 26.8459 16.6039 26.8459C7.43383 26.8459 0 23.0227 0 18.3067C0 13.5907 7.43383 19.3863 16.6039 19.3863C25.774 19.3863 33.2079 13.5907 33.2079 18.3067Z" fill="#222222"/>
<path d="M33.2079 27.514C33.2079 32.2301 25.774 36.0532 16.6039 36.0532C7.43383 36.0532 0 32.2301 0 27.514C0 22.798 7.43383 28.5936 16.6039 28.5936C25.774 28.5936 33.2079 22.798 33.2079 27.514Z" fill="#727272"/>
</svg>
